<svg width="24" height="24" viewBox="0 0 24 24" fill="none" xmlns="http://www.w3.org/2000/svg">
<g clip-path="url(#clip0_4094_14)">
<path d="M18.9675 14.8671C18.4762 14.3555 17.8835 14.082 17.2554 14.082C16.6324 14.082 16.0347 14.3505 15.5231 14.8621L13.9224 16.4576C13.7907 16.3867 13.659 16.3209 13.5324 16.255C13.35 16.1639 13.1778 16.0777 13.0309 15.9866C11.5316 15.0343 10.169 13.7933 8.86213 12.1875C8.22896 11.3872 7.80347 10.7135 7.49448 10.0297C7.90984 9.64979 8.29481 9.25469 8.66965 8.87479C8.81148 8.73296 8.95331 8.58607 9.09514 8.44424C10.1589 7.38051 10.1589 6.00273 9.09514 4.939L7.7123 3.55616C7.55527 3.39913 7.39318 3.23704 7.24122 3.07495C6.93729 2.7609 6.61818 2.43671 6.28893 2.13279C5.79759 1.64652 5.21001 1.38818 4.59203 1.38818C3.97406 1.38818 3.37634 1.64652 2.86981 2.13279C2.86474 2.13786 2.86474 2.13786 2.85968 2.14292L1.13745 3.88034C0.489086 4.52871 0.119315 5.31891 0.0382688 6.23574C-0.0833 7.71482 0.352321 9.0926 0.686635 9.99424C1.50722 12.2078 2.73304 14.2593 4.56164 16.4576C6.78027 19.1068 9.44972 21.1988 12.4991 22.6728C13.6641 23.225 15.2192 23.8784 16.9566 23.9898C17.063 23.9949 17.1744 24 17.2757 24C18.4458 24 19.4285 23.5795 20.1984 22.7438C20.2035 22.7336 20.2136 22.7286 20.2187 22.7184C20.4821 22.3993 20.786 22.1106 21.1051 21.8016C21.3229 21.5939 21.5458 21.3761 21.7636 21.1482C22.2651 20.6264 22.5285 20.0186 22.5285 19.3956C22.5285 18.7674 22.26 18.1647 21.7484 17.6581L18.9675 14.8671ZM20.7809 20.2009C20.7759 20.2009 20.7759 20.206 20.7809 20.2009C20.5834 20.4137 20.3808 20.6062 20.163 20.8189C19.8337 21.133 19.4994 21.4622 19.1853 21.832C18.6737 22.3791 18.071 22.6374 17.2808 22.6374C17.2048 22.6374 17.1237 22.6374 17.0478 22.6323C15.5433 22.5361 14.1453 21.9485 13.0968 21.447C10.2298 20.0591 7.7123 18.0887 5.6203 15.5915C3.89301 13.5096 2.73811 11.5848 1.97324 9.51809C1.50216 8.25682 1.32994 7.27414 1.40592 6.34718C1.45657 5.75453 1.68451 5.26319 2.10494 4.84276L3.83223 3.11547C4.08043 2.88247 4.34383 2.75583 4.60216 2.75583C4.92128 2.75583 5.17961 2.94832 5.34171 3.11041C5.34677 3.11547 5.35184 3.12054 5.3569 3.1256C5.66589 3.41433 5.95968 3.71319 6.26867 4.0323C6.42569 4.1944 6.58778 4.35649 6.74988 4.52364L8.13272 5.90649C8.66965 6.44342 8.66965 6.93982 8.13272 7.47675C7.98583 7.62365 7.844 7.77054 7.6971 7.91237C7.27161 8.34799 6.86638 8.75322 6.42569 9.14832C6.41556 9.15845 6.40543 9.16352 6.40037 9.17365C5.96475 9.60927 6.04579 10.0348 6.13697 10.3235C6.14203 10.3387 6.1471 10.3539 6.15216 10.3691C6.5118 11.2403 7.01834 12.0609 7.78828 13.0385L7.79334 13.0436C9.19138 14.7658 10.6654 16.1081 12.2914 17.1364C12.4991 17.2681 12.7118 17.3745 12.9144 17.4758C13.0968 17.567 13.269 17.6531 13.4159 17.7442C13.4362 17.7544 13.4564 17.7696 13.4767 17.7797C13.6489 17.8658 13.811 17.9063 13.9782 17.9063C14.3986 17.9063 14.662 17.6429 14.7481 17.5568L16.4804 15.8245C16.6527 15.6522 16.9262 15.4446 17.2453 15.4446C17.5594 15.4446 17.8177 15.6421 17.9747 15.8143C17.9798 15.8194 17.9798 15.8194 17.9849 15.8245L20.7759 18.6155C21.2976 19.1322 21.2976 19.664 20.7809 20.2009Z" fill="#56CCF2"/>
<path d="M12.9701 5.70884C14.2973 5.93171 15.5028 6.55982 16.4652 7.52224C17.4277 8.48466 18.0507 9.69021 18.2786 11.0173C18.3344 11.3517 18.6231 11.5847 18.9523 11.5847C18.9929 11.5847 19.0283 11.5796 19.0688 11.5745C19.4437 11.5137 19.6919 11.1592 19.6311 10.7843C19.3576 9.17861 18.5978 7.71472 17.4378 6.55475C16.2778 5.39478 14.8139 4.63498 13.2082 4.36145C12.8334 4.30067 12.4839 4.54887 12.418 4.91864C12.3522 5.28841 12.5953 5.64805 12.9701 5.70884Z" fill="#56CCF2"/>
<path d="M23.9721 10.5869C23.5213 7.94279 22.2752 5.53674 20.3605 3.62203C18.4458 1.70732 16.0398 0.461243 13.3956 0.0104253C13.0259 -0.0554245 12.6763 0.197844 12.6105 0.567615C12.5497 0.942452 12.7979 1.29196 13.1728 1.35781C15.5332 1.75798 17.686 2.87742 19.3981 4.58445C21.1102 6.29654 22.2246 8.44932 22.6247 10.8098C22.6804 11.1441 22.9692 11.3771 23.2984 11.3771C23.3389 11.3771 23.3744 11.372 23.4149 11.367C23.7847 11.3113 24.038 10.9567 23.9721 10.5869Z" fill="#56CCF2"/>
</g>
<defs>
<clipPath id="clip0_4094_14">
<rect width="24" height="24" fill="white"/>
</clipPath>
</defs>
</svg>
