<svg width="14" height="14" viewBox="0 0 14 14" fill="none" xmlns="http://www.w3.org/2000/svg">
<g clip-path="url(#clip0_1_263)">
<path d="M12.5417 2.3333H1.45832C0.6545 2.3333 0 2.9878 0 3.79165V10.2083C0 11.0121 0.6545 11.6666 1.45832 11.6666H12.5416C13.3455 11.6666 14 11.0121 14 10.2083V3.79165C14 2.9878 13.3455 2.3333 12.5417 2.3333ZM13.4167 10.2083C13.4167 10.6907 13.0241 11.0833 12.5417 11.0833H1.45832C0.975898 11.0833 0.583324 10.6907 0.583324 10.2083V3.79165C0.583324 3.30922 0.975898 2.91665 1.45832 2.91665H12.5416C13.0241 2.91665 13.4166 3.30922 13.4166 3.79165V10.2083H13.4167Z" fill="#56CCF2"/>
<path d="M13.7083 4.0833H0.291676C0.130676 4.0833 0 4.21397 0 4.37497V6.12498C0 6.28598 0.130676 6.41665 0.291676 6.41665H13.7084C13.8694 6.41665 14 6.28598 14 6.12498V4.37497C14 4.21397 13.8693 4.0833 13.7083 4.0833ZM13.4167 5.8333H0.583324V4.66662H13.4166V5.8333H13.4167Z" fill="#56CCF2"/>
<path d="M5.54168 8.16669H2.04168C1.88068 8.16669 1.75 8.29736 1.75 8.45836C1.75 8.61936 1.88068 8.75001 2.04168 8.75001H5.54168C5.70268 8.75001 5.83335 8.61933 5.83335 8.45833C5.83335 8.29733 5.70268 8.16669 5.54168 8.16669Z" fill="#56CCF2"/>
<path d="M5.54168 9.33331H2.04168C1.88068 9.33331 1.75 9.46399 1.75 9.62499C1.75 9.78599 1.88068 9.91666 2.04168 9.91666H5.54168C5.70268 9.91666 5.83335 9.78599 5.83335 9.62499C5.83332 9.46399 5.70268 9.33331 5.54168 9.33331Z" fill="#56CCF2"/>
<path d="M11.375 7.58331H10.7917C10.3093 7.58331 9.91669 7.97589 9.91669 8.45831V9.04164C9.91669 9.52406 10.3093 9.91664 10.7917 9.91664H11.375C11.8574 9.91664 12.25 9.52406 12.25 9.04164V8.45831C12.25 7.97591 11.8574 7.58331 11.375 7.58331ZM11.6667 9.04166C11.6667 9.20266 11.536 9.33334 11.375 9.33334H10.7917C10.6307 9.33334 10.5 9.20266 10.5 9.04166V8.45834C10.5 8.29734 10.6307 8.16666 10.7917 8.16666H11.375C11.536 8.16666 11.6667 8.29734 11.6667 8.45834V9.04166Z" fill="#56CCF2"/>
</g>
<defs>
<clipPath id="clip0_1_263">
<rect width="14" height="14" fill="white"/>
</clipPath>
</defs>
</svg>
