<svg width="132" height="39" viewBox="0 0 132 39" fill="none" xmlns="http://www.w3.org/2000/svg">
<mask id="mask0_4066_28" style="mask-type:alpha" maskUnits="userSpaceOnUse" x="0" y="0" width="132" height="39">
<path d="M4.62391 39C2.07484 39 0 36.9252 0 34.3853V4.60785C0 2.067 2.07484 0 4.62391 0H127.304C129.852 0 132 2.067 132 4.60785V34.3853C132 36.9252 129.852 39 127.304 39H4.62391Z" fill="white"/>
</mask>
<g mask="url(#mask0_4066_28)">
<path d="M4.62391 39C2.07484 39 0 36.9252 0 34.3853V4.60785C0 2.067 2.07484 0 4.62391 0H127.304C129.852 0 132 2.067 132 4.60785V34.3853C132 36.9252 129.852 39 127.304 39H4.62391Z" fill="white"/>
<path fill-rule="evenodd" clip-rule="evenodd" d="M117.628 32.5819H115.74L117.584 28.475L114.352 21.0907H116.302L118.456 26.3729H118.514L120.589 21.0907H122.602L117.628 32.5819ZM112.48 27.9263H112.418C111.921 28.7167 111.036 29.1733 110.108 29.1183C109.352 29.1746 108.606 28.9214 108.04 28.4163C107.473 27.9113 107.134 27.1973 107.1 26.4372C107.1 24.6508 108.864 23.6947 110.593 23.6947C111.251 23.6931 111.899 23.8544 112.481 24.1645V24.0397C112.383 23.0803 111.533 22.3798 110.577 22.4716C109.898 22.4129 109.249 22.7637 108.923 23.3653L107.316 22.6909C107.927 21.4788 109.196 20.7464 110.546 20.8265C112.621 20.8265 114.233 22.0331 114.233 24.1957V28.8668H112.486V27.9263H112.48ZM110.826 25.1683C109.936 25.1683 108.907 25.5289 108.907 26.4694C109.025 27.1425 109.653 27.6 110.327 27.5034C111.423 27.4912 112.342 26.6682 112.48 25.5757C111.975 25.2934 111.403 25.1527 110.826 25.1683ZM104.288 16.7041H106.096V28.8873H104.286V16.7051L104.288 16.7041ZM99.3106 24.2717H96.7823V28.8873H94.973V16.7051H99.3106C100.706 16.6271 102.03 17.3306 102.751 18.5333C103.472 19.736 103.472 21.2407 102.751 22.4434C102.03 23.6461 100.706 24.3496 99.3106 24.2717ZM99.3572 18.3998H96.7823V22.5759H99.3572C100.11 22.5923 100.814 22.1979 101.195 21.5451C101.576 20.8924 101.576 20.0834 101.195 19.4306C100.814 18.7779 100.11 18.3835 99.3572 18.3998ZM87.4891 27.5053C88.32 27.5096 89.0918 27.0742 89.5206 26.3592L90.9274 27.3016C90.1619 28.4561 88.8699 29.1464 87.4891 29.1387C86.3928 29.1546 85.3373 28.722 84.5649 27.9403C83.7926 27.1585 83.3699 26.0949 83.394 24.9938C83.3378 23.9191 83.7219 22.868 84.4569 22.0851C85.192 21.3021 86.214 20.8555 87.2854 20.849C88.8977 20.8943 90.3095 21.9483 90.8177 23.4862L91.005 23.9569L85.4876 26.2501C85.8357 27.041 86.6289 27.5384 87.4891 27.5053ZM88.8793 23.3293C88.5904 22.7543 87.9871 22.4089 87.3474 22.4521C86.7402 22.4797 86.1694 22.7514 85.7637 23.2062C85.3581 23.661 85.1516 24.2607 85.1908 24.8701L88.8793 23.3293ZM80.7047 16.7021H82.5209V28.8873H80.7076V16.7051L80.7047 16.7021ZM75.5356 32.8597C73.9336 32.868 72.4868 31.8992 71.8781 30.4105L73.4566 29.7508C73.7872 30.621 74.6087 31.204 75.5356 31.2263C76.8939 31.2263 77.7399 30.3784 77.7399 28.7898V28.1934H77.67C77.119 28.813 76.3246 29.1577 75.4978 29.1358C73.2886 29.0395 71.5468 27.2123 71.5468 24.9909C71.5468 22.7695 73.2886 20.9423 75.4978 20.846C76.3208 20.8262 77.1123 21.1636 77.67 21.7719H77.7331V21.0965H79.4522V28.5394C79.4551 31.6034 77.6574 32.8597 75.5356 32.8597ZM75.6608 22.4814C74.3627 22.5934 73.3659 23.6846 73.3659 24.9934C73.3659 26.3021 74.3627 27.3933 75.6608 27.5053C76.9148 27.3375 77.8511 26.2625 77.8502 24.9916C77.8492 23.7208 76.9112 22.6472 75.6569 22.4814H75.6608ZM77.5196 12.4169L74.6867 7.85295L74.711 8.6755V12.4169H73.769V6.37452H74.8303L77.5322 10.7182L77.509 9.8947V6.37452H78.4461V12.4169H77.5148H77.5196ZM69.8243 12.5475C68.9943 12.5668 68.1946 12.2343 67.621 11.6314C66.4412 10.3765 66.4412 8.41489 67.621 7.16003C68.2037 6.57113 68.9962 6.23999 69.8228 6.23999C70.6494 6.23999 71.4419 6.57113 72.0246 7.16003C73.2068 8.41242 73.2068 10.3751 72.0246 11.6275C71.4512 12.2317 70.6512 12.5656 69.8204 12.5475H69.8243ZM68.3127 7.78571C67.4903 8.69858 67.4903 10.0889 68.3127 11.0018C69.149 11.8387 70.5015 11.8387 71.3377 11.0018C72.1592 10.0879 72.1571 8.69716 71.3329 7.78571C70.5008 6.94897 69.1487 6.94897 68.3127 7.78571ZM70.7905 24.9938C70.7968 26.678 69.7917 28.1998 68.2446 28.8487C66.6975 29.4976 64.9136 29.1455 63.7258 27.9569C62.5381 26.7682 62.1809 24.9775 62.821 23.4209C63.4612 21.8643 64.9723 20.849 66.6489 20.849C67.7494 20.8318 68.8101 21.2625 69.5895 22.0433C70.3689 22.824 70.8007 23.8883 70.7867 24.9938H70.7905ZM66.6489 22.4814C65.6213 22.4077 64.6535 22.973 64.2089 23.9065C63.7643 24.8401 63.9336 25.9518 64.6355 26.7092C65.3375 27.4667 66.4292 27.7156 67.3879 27.3369C68.3466 26.9581 68.9771 26.0287 68.9773 24.9938C69.0108 24.347 68.7814 23.7143 68.3417 23.2406C67.902 22.7669 67.2896 22.4929 66.645 22.4814H66.6489ZM62.8536 12.3194V12.4169H61.9116V7.2877H60.2856V6.37452H64.4757V7.2877H62.8497V12.3194H62.8536ZM58.6916 12.4169H58.5946V6.37452H59.5356V12.4169H58.6916ZM61.7515 24.989C61.7582 26.6737 60.753 28.1963 59.2054 28.8455C57.6578 29.4948 55.8732 29.1427 54.6851 27.9536C53.497 26.7646 53.1398 24.9732 53.7803 23.4162C54.4208 21.8592 55.9327 20.8437 57.6098 20.8441C58.7119 20.8258 59.7743 21.2568 60.5547 22.0387C61.3351 22.8206 61.7669 23.8867 61.7515 24.9938V24.989ZM57.6098 22.4765C56.5823 22.4028 55.6144 22.9681 55.1699 23.9017C54.7253 24.8352 54.8945 25.9469 55.5964 26.7044C56.2984 27.4618 57.3902 27.7108 58.3489 27.332C59.3076 26.9532 59.938 26.0238 59.9382 24.989C59.9704 24.3437 59.7409 23.7128 59.3022 23.2403C58.8635 22.7678 58.2529 22.494 57.6098 22.4814V22.4765ZM54.2686 12.3194V12.4169H53.3256V7.2877H51.6996V6.37452H55.8946V7.2877H54.2686V12.3194ZM46.8613 18.0227C44.2894 18.0227 42.2045 20.1171 42.2045 22.7007C42.2045 25.2842 44.2894 27.3786 46.8613 27.3786C48.0723 27.4279 49.2475 26.9607 50.0968 26.0922C50.6534 25.4828 50.989 24.7027 51.0495 23.8779H46.8613V22.1237H52.7532C52.8209 22.4858 52.8534 22.8536 52.8502 23.2221C52.8996 24.7397 52.3553 26.2164 51.3338 27.3358C50.1706 28.5535 48.5429 29.2112 46.8642 29.1416C44.5559 29.1702 42.4107 27.9495 41.2483 25.9459C40.0858 23.9424 40.0858 21.4657 41.2483 19.4622C42.4107 17.4587 44.5559 16.238 46.8642 16.2665C48.5061 16.2414 50.089 16.881 51.2562 18.0412L50.0202 19.2779C49.1731 18.4576 48.0378 18.0064 46.8613 18.0227ZM47.522 6.37452H51.1116V7.2877H48.4679V8.94448H50.8584V9.84109H48.4679V11.4979H51.1194V12.4169H47.5298V6.37452H47.522ZM45.8931 11.6519C45.3169 12.2508 44.5146 12.5757 43.686 12.5455C41.9532 12.5455 40.5484 11.1344 40.5484 9.39376C40.5484 7.65308 41.9532 6.24198 43.686 6.24198C44.1099 6.24048 44.5295 6.32639 44.9191 6.49439C45.2837 6.6438 45.6081 6.87753 45.8659 7.1766L45.9232 7.24579L45.8601 7.30816L45.2732 7.89778L45.2053 7.81689C44.8289 7.37122 44.267 7.12756 43.686 7.15808C42.6804 7.15796 41.799 7.83351 41.5335 8.80782C41.268 9.78212 41.684 10.8144 42.5495 11.3288C43.415 11.8432 44.516 11.7124 45.2382 11.0096C45.4962 10.73 45.6527 10.3712 45.6826 9.99118H43.5841V9.09359H46.5829L46.5974 9.17448C46.6248 9.32562 46.6388 9.47891 46.6392 9.63253C46.6748 10.3802 46.4042 11.1099 45.8902 11.6519H45.8931Z" fill="black"/>
<path fill-rule="evenodd" clip-rule="evenodd" d="M12.4187 31.98C12.5268 31.9372 12.6319 31.8864 12.7332 31.8281L27.1535 23.594L23.7346 20.0328L12.4187 31.98ZM27.7917 23.2301L24.2252 19.515L27.7881 15.7535L32.6946 18.5454C33.9034 19.2327 33.2851 20.0931 32.6946 20.4304L27.7917 23.2301ZM27.1501 15.3908L12.7332 7.18514C12.5765 7.09843 12.4059 7.04246 12.2299 7.02002L23.7313 19.0004L27.1506 15.3906L27.1501 15.3908ZM11.3844 7.16796L23.2407 19.5181L11.4413 31.975C11.0969 31.7472 10.9123 31.2534 10.9092 30.614C10.9033 29.3902 10.8095 9.96124 10.8024 8.50317C10.799 7.80507 11.0428 7.37861 11.3844 7.16796Z" fill="black"/>
</g>
</svg>
