<svg width="12" height="14" viewBox="0 0 12 14" fill="none" xmlns="http://www.w3.org/2000/svg">
<g clip-path="url(#clip0_1_250)">
<path d="M5.98008 12.8139H1.49501C1.21992 12.8139 0.99668 12.5534 0.99668 12.2325V1.76738C0.99668 1.44645 1.21995 1.186 1.49501 1.186H5.98008C6.25566 1.186 6.47841 0.926123 6.47841 0.604616C6.47841 0.283108 6.25566 0.0231781 5.98008 0.0231781H1.49501C0.670758 0.0231781 0 0.805756 0 1.76738V12.2325C0 13.1941 0.670758 13.9767 1.49501 13.9767H5.98008C6.25566 13.9767 6.47841 13.7168 6.47841 13.3953C6.47841 13.0738 6.25566 12.8139 5.98008 12.8139Z" fill="#56CCF2"/>
<path d="M11.8515 6.58606L8.82157 3.09768C8.62622 2.87209 8.31028 2.87502 8.11692 3.1035C7.92356 3.33199 7.92555 3.70001 8.12191 3.92559L10.2872 6.4186H4.48502C4.20944 6.4186 3.98669 6.67848 3.98669 6.99998C3.98669 7.32149 4.20944 7.58139 4.48502 7.58139H10.2872L8.12191 10.0744C7.92558 10.3 7.92408 10.668 8.11692 10.8965C8.21458 11.0116 8.34316 11.0697 8.47174 11.0697C8.59833 11.0697 8.72489 11.0139 8.82157 10.9023L11.8515 7.41391C11.9462 7.30462 12 7.15576 12 6.99996C12 6.84421 11.9467 6.69595 11.8515 6.58606Z" fill="#56CCF2"/>
</g>
<defs>
<clipPath id="clip0_1_250">
<rect width="12" height="14" fill="white"/>
</clipPath>
</defs>
</svg>
