<svg width="23" height="25" viewBox="0 0 23 25" fill="none" xmlns="http://www.w3.org/2000/svg">
<path d="M0.568339 21.0224H4.54568V24.4319C4.54568 24.5978 4.59876 24.7336 4.70554 24.8397C4.81204 24.9466 4.94818 25 5.11402 25H8.07907C8.23295 25 8.3661 24.9466 8.47858 24.8397C8.59105 24.7336 8.64711 24.5977 8.64711 24.4319V21.0224H17.6137C17.7792 21.0224 17.9154 20.9696 18.0221 20.8628C18.129 20.7561 18.182 20.6202 18.182 20.4543V18.1815C18.182 18.0165 18.129 17.8798 18.0221 17.7736C17.9157 17.6668 17.7792 17.6134 17.6137 17.6134H8.64682V15.5181H14.6837C17.0511 15.5181 18.9832 14.7968 20.481 13.352C21.9782 11.9088 22.7272 10.0445 22.7272 7.75905C22.7272 5.47511 21.9782 3.61077 20.481 2.16608C18.9835 0.72281 17.051 0 14.6837 0H5.11373C4.94784 0 4.81199 0.0533691 4.70525 0.159568C4.59876 0.266355 4.54539 0.403086 4.54539 0.568045V11.7366H0.568339C0.402498 11.7366 0.2666 11.7927 0.159862 11.9052C0.0534181 12.0176 0 12.1508 0 12.3046V14.95C0 15.1158 0.0530751 15.2517 0.159862 15.3585C0.266649 15.4653 0.402204 15.518 0.568339 15.518H4.54568V17.6133H0.568339C0.402498 17.6133 0.2666 17.6667 0.159862 17.7736C0.0534181 17.8797 0 18.0162 0 18.1814V20.4542C0 20.6201 0.0530751 20.756 0.159862 20.8627C0.2666 20.9696 0.402449 21.0224 0.568339 21.0224ZM8.64682 3.78234H14.3286C15.5832 3.78234 16.5951 4.14916 17.3648 4.88305C18.1341 5.61698 18.5189 6.57611 18.5189 7.75934C18.5189 8.94316 18.1341 9.90258 17.3648 10.6356C16.5951 11.3702 15.5832 11.737 14.3286 11.737H8.64682V3.78234Z" fill="#219653"/>
</svg>
