<svg width="14" height="14" viewBox="0 0 14 14" fill="none" xmlns="http://www.w3.org/2000/svg">
<path d="M0.9545 11.7725H3.18181V13.6819C3.18181 13.7748 3.21153 13.8508 3.27134 13.9103C3.33097 13.9701 3.40721 14 3.50008 14H5.16051C5.24668 14 5.32125 13.9701 5.38423 13.9103C5.44722 13.8508 5.47861 13.7747 5.47861 13.6819V11.7725H10.4999C10.5926 11.7725 10.6689 11.743 10.7286 11.6832C10.7885 11.6234 10.8181 11.5473 10.8181 11.4544V10.1816C10.8181 10.0893 10.7885 10.0127 10.7286 9.95322C10.669 9.89339 10.5926 9.86348 10.4999 9.86348H5.47845V8.69013H8.85913C10.1848 8.69013 11.2668 8.28618 12.1056 7.47713C12.944 6.66893 13.3635 5.62492 13.3635 4.34507C13.3635 3.06606 12.944 2.02203 12.1056 1.213C11.267 0.404774 10.1848 0 8.85913 0H3.49992C3.40702 0 3.33094 0.0298867 3.27117 0.0893581C3.21153 0.149159 3.18165 0.225728 3.18165 0.318105V6.57252H0.9545C0.861629 6.57252 0.785527 6.60394 0.725753 6.6669C0.666145 6.72988 0.63623 6.80445 0.63623 6.89059V8.37197C0.63623 8.46487 0.665953 8.54097 0.725753 8.60075C0.785554 8.66058 0.861465 8.69011 0.9545 8.69011H3.18181V9.86345H0.9545C0.861629 9.86345 0.785527 9.89337 0.725753 9.9532C0.666145 10.0126 0.63623 10.0891 0.63623 10.1816V11.4544C0.63623 11.5473 0.665953 11.6234 0.725753 11.6831C0.785527 11.743 0.861602 11.7725 0.9545 11.7725ZM5.47845 2.11811H8.66027C9.36284 2.11811 9.92951 2.32353 10.3605 2.73451C10.7913 3.14551 11.0068 3.68262 11.0068 4.34523C11.0068 5.00817 10.7913 5.54545 10.3605 5.95596C9.92951 6.36729 9.36281 6.57271 8.66027 6.57271H5.47845V2.11811Z" fill="#EB5757"/>
</svg>
