<svg width="49" height="17" viewBox="0 0 49 17" fill="none" xmlns="http://www.w3.org/2000/svg">
<path d="M20.029 0.833008L17.5697 16.1364H21.5005L23.9582 0.833008H20.029ZM31.8855 7.06675C30.5118 6.38843 29.6698 5.93061 29.6698 5.23683C29.6866 4.60604 30.3819 3.95979 31.9345 3.95979C33.2115 3.92771 34.1502 4.22783 34.8623 4.52643L35.219 4.68564L35.7534 1.48379C34.977 1.18367 33.7459 0.852992 32.2254 0.852992C28.3437 0.852992 25.6104 2.87117 25.5934 5.75763C25.5614 7.88766 27.5503 9.06965 29.0388 9.77871C30.5594 10.5061 31.077 10.9777 31.077 11.6239C31.0602 12.6161 29.8475 13.0739 28.7159 13.0739C27.1479 13.0739 26.3057 12.8381 25.0271 12.2853L24.5095 12.0495L23.9598 15.377C24.8832 15.7874 26.5813 16.1487 28.3439 16.1671C32.4691 16.1671 35.1533 14.1795 35.1871 11.1033C35.2005 9.41578 34.1517 8.12329 31.8855 7.06675ZM45.8305 0.880368H42.7894C41.8523 0.880368 41.1402 1.14992 40.7344 2.11157L34.8957 16.1364H39.0209L40.157 13.1H44.7723L45.3618 16.1487H49.0001L45.8305 0.880368ZM41.3011 10.0357C41.3807 10.0434 42.8844 5.07897 42.8844 5.07897L44.0819 10.0357C44.0819 10.0357 42.0775 10.0357 41.3011 10.0357ZM14.2853 0.833008L10.4341 11.2303L10.0146 9.17982C9.30254 6.81399 7.07006 4.24311 4.57861 2.96606L8.1051 16.1211H12.2641L18.4442 0.834686H14.2853V0.833008Z" fill="#2394BC"/>
<path d="M8.71898 2.8054C8.41886 1.63853 7.46175 0.851542 6.16186 0.834747H0.062811L0 1.1179C4.75768 2.29082 8.75105 5.89994 10.0466 9.29475L8.71898 2.8054Z" fill="#EFC75E"/>
</svg>
