<svg width="29" height="30" viewBox="0 0 29 30" fill="none" xmlns="http://www.w3.org/2000/svg">
<g clip-path="url(#clip0_3856_97)">
<path d="M24.0165 21.6174C23.7147 20.8392 23.5625 20.0189 23.5625 19.1803V13.125C23.5625 8.92457 20.86 5.40222 17.1725 4.21385C16.9534 2.88884 15.8425 1.875 14.5 1.875C13.1576 1.875 12.0467 2.88884 11.8275 4.21385C8.14005 5.40222 5.43758 8.92457 5.43758 13.125V19.1803C5.43758 20.0189 5.28535 20.8392 4.98357 21.6174L3.68965 24.9646C3.57811 25.2539 3.61265 25.5798 3.78078 25.838C3.94982 26.0962 4.23034 26.25 4.53127 26.25H11.4203C12.0628 27.3798 13.2089 28.125 14.5 28.125C15.7912 28.125 16.9372 27.3798 17.5798 26.25H24.4687C24.7697 26.25 25.0502 26.0962 25.2192 25.838C25.3874 25.5798 25.4219 25.2539 25.3104 24.9646C25.3104 24.9646 24.0165 21.6174 24.0165 21.6174ZM5.86942 24.375L6.66681 22.3132C7.05357 21.3134 7.25002 20.2588 7.25002 19.1802V13.125C7.25002 8.98859 10.5024 5.62494 14.5 5.62494C18.4977 5.62494 21.75 8.98859 21.75 13.125V19.1802C21.75 20.2587 21.9464 21.3134 22.3332 22.3132L23.1306 24.375H5.86942Z" fill="#56CCF2"/>
<path d="M1.70718 7.94125C0.590277 10.1056 0 12.5463 0 15C0 17.4536 0.590277 19.8943 1.70718 22.0587L3.3055 21.1761C2.31519 19.2554 1.8125 17.1771 1.8125 15C1.8125 12.8229 2.31519 10.7446 3.3055 8.8238L1.70718 7.94125Z" fill="#56CCF2"/>
<path d="M27.2928 7.94125L25.6945 8.8238C26.6848 10.7446 27.1875 12.8228 27.1875 15C27.1875 17.1771 26.6848 19.2553 25.6945 21.1761L27.2928 22.0587C28.4097 19.8943 29 17.4536 29 15C29 12.5464 28.4097 10.1056 27.2928 7.94125Z" fill="#56CCF2"/>
</g>
<defs>
<clipPath id="clip0_3856_97">
<rect width="29" height="30" fill="white"/>
</clipPath>
</defs>
</svg>
